<svg width="20" height="21" viewBox="0 0 20 21" fill="none" xmlns="http://www.w3.org/2000/svg">
<rect y="0.919998" width="20" height="20" rx="10" fill="#FE9A0C"/>
<g clip-path="url(#clip0_559_12)">
<path d="M14.7 12.055L12.075 14.68M6.4938 13.1337H10.5875M6.4938 8.7063H13.5062M6.4938 10.92H10.5875M5.77 7.16C5.64535 7.16 5.5258 7.20951 5.43766 7.29766C5.34952 7.3858 5.3 7.50534 5.3 7.63V14.21C5.3 14.3346 5.34952 14.4542 5.43766 14.5423C5.5258 14.6305 5.64535 14.68 5.77 14.68H12.075V12.525C12.075 12.4004 12.1246 12.2808 12.2127 12.1927C12.3009 12.1046 12.4204 12.055 12.545 12.055H14.7V7.63C14.7 7.50534 14.6505 7.3858 14.5623 7.29766C14.4742 7.20951 14.3547 7.16 14.23 7.16H5.77Z" stroke="white" stroke-linecap="round" stroke-linejoin="round"/>
</g>
<defs>
<clipPath id="clip0_559_12">
<rect width="10" height="10" fill="white" transform="translate(5 5.92)"/>
</clipPath>
</defs>
</svg>
